<svg id="Слой_1" data-name="Слой 1" xmlns="http://www.w3.org/2000/svg" viewBox="0 0 410 378"><defs><style>.cls-1{fill:#b0bec5;}.cls-2{fill:#eee;}.cls-3{fill:#212121;}.cls-4{fill:#b2ebf2;}.cls-5{fill:#9e9e9e;}.cls-6{fill:#f5f5f5;}.cls-7{fill:#fff;}</style></defs><circle class="cls-1" cx="38" cy="207" r="38"/><circle class="cls-1" cx="253" cy="207" r="38"/><path class="cls-1" d="M549.74,345c18.18,50.9,57.26,60,111,58.52C723,405,755.07,389.64,770.78,345V309.89h-221Z" transform="translate(-515 -100)"/><rect class="cls-1" x="140" y="71" width="11" height="32"/><path class="cls-2" d="M659,198c-81-1-113,27.79-113,106.37,1,66.12,37,92,113,90.57,83,.47,117-27.32,116.52-98.47C776,226.75,744,198,659,198Z" transform="translate(-515 -100)"/><path class="cls-1" d="M659,233c-67-1-89,22-88.44,63.49C571,332,578,350,659,347.81c84,2.19,90-3.81,90.52-51.32C748.59,251.9,723,232,659,233Z" transform="translate(-515 -100)"/><path class="cls-3" d="M660,241c-62-1-87.54,15.82-87.07,64C576,346,598,365,660,363.59c66,1.41,88.75-14.08,88.33-58.59C750.41,251.38,718,240,660,241Z" transform="translate(-515 -100)"/><circle class="cls-2" cx="145" cy="59" r="18"/><circle class="cls-4" cx="104" cy="185" r="12"/><circle class="cls-4" cx="186" cy="185" r="12"/><path class="cls-4" d="M631,304.89l55,.11c0,19-6,31-27.5,30.7C644,336,631,324,631,304.89Z" transform="translate(-515 -100)"/><ellipse class="cls-5" cx="147.5" cy="360.5" rx="116.5" ry="17.5"/><path class="cls-6" d="M911.61,183H777.39a13.69,13.69,0,0,1-9.47-3.92,13.35,13.35,0,0,1-3.92-9.47V113.39A13.38,13.38,0,0,1,777.39,100H911.61A13.38,13.38,0,0,1,925,113.39v56.22A13.38,13.38,0,0,1,911.61,183Z" transform="translate(-515 -100)"/><polygon class="cls-6" points="270 107 279.15 83 299.59 83 270 107"/><ellipse class="cls-7" cx="776.42" cy="173.04" rx="3.57" ry="7.29" transform="translate(-189.6 728.29) rotate(-68.02)"/><ellipse class="cls-7" cx="912.84" cy="108.32" rx="2.72" ry="5.56" transform="translate(-44.22 814.3) rotate(-68.02)"/><rect class="cls-1" x="267" y="31" width="56" height="5" rx="1.69"/><rect class="cls-1" x="325" y="31" width="22" height="5" rx="1.69"/><rect class="cls-1" x="352" y="31" width="25" height="5" rx="1.69"/><rect class="cls-1" x="327" y="43" width="27" height="5" rx="1.69"/><rect class="cls-1" x="295" y="43" width="30" height="5" rx="1.69"/><rect class="cls-1" x="266" y="43" width="25" height="5" rx="1.69"/></svg>