<svg xmlns="http://www.w3.org/2000/svg" viewBox="0 0 401.3 401"><defs><style>.cls-1{fill:#42a5f5;}.cls-2{fill:#b0bec5;}.cls-3{fill:#eee;}.cls-4{fill:#212121;}.cls-5{fill:#b2ebf2;}</style></defs><g id="Слой_2" data-name="Слой 2"><g id="Слой_1-2" data-name="Слой 1"><rect class="cls-1" width="401.3" height="401"/><circle class="cls-2" cx="93.92" cy="219.33" r="38"/><circle class="cls-2" cx="308.92" cy="219.33" r="38"/><path class="cls-2" d="M90.66,257.33c18.18,50.91,57.26,60,111,58.52,62.24,1.48,94.32-13.88,110-58.52V222.22h-221Z"/><rect class="cls-2" x="195.92" y="83.33" width="11" height="32"/><path class="cls-3" d="M199.92,110.33c-81-1-113,27.79-113,106.37,1,66.12,37,92,113,90.58,83,.46,117-27.33,116.52-98.47C316.92,139.08,284.92,110.33,199.92,110.33Z"/><path class="cls-2" d="M199.92,145.33c-67-1-89,22-88.44,63.49.44,35.51,7.44,53.51,88.44,51.33,84,2.18,90-3.82,90.52-51.33C289.51,164.23,263.92,144.33,199.92,145.33Z"/><path class="cls-4" d="M200.92,153.33c-62-1-87.53,15.82-87.07,64,3.07,41,25.07,60,87.07,58.6,66,1.4,88.75-14.08,88.33-58.6C291.33,163.72,258.92,152.33,200.92,153.33Z"/><circle class="cls-3" cx="200.92" cy="71.33" r="18"/><circle class="cls-5" cx="159.92" cy="197.33" r="12"/><circle class="cls-5" cx="241.92" cy="197.33" r="12"/><path class="cls-5" d="M171.92,217.22l55,.11c0,19-6,31-27.5,30.71C184.92,248.33,171.92,236.33,171.92,217.22Z"/></g></g></svg>