<svg xmlns="http://www.w3.org/2000/svg" viewBox="0 0 283.98 349.94"><defs><style>.cls-1{fill:none;stroke:#000;stroke-miterlimit:10;stroke-width:9px;}</style></defs><g id="Слой_2" data-name="Слой 2"><g id="Слой_2-2" data-name="Слой 2"><path class="cls-1" d="M5.44,347.79C-.8,283,23.82,241.26,83.61,225.66c19.5-5.82,33.11-17,41.06-32.22"/><path class="cls-1" d="M120.67,55.44c10.63,30,28.57,38.6,52,34,9,0,15,6.24,14,15,2.27,17.4,2.92,33.59,0,47.12-4.45,16.19-11.78,29.2-23,37.88-14.11,12-28.45,11.61-43,0-9.75-8.64-15.9-20-20-33-2.36-21.87-2.65-45.53-2-70,2.6-12,8.49-19.65,23-16,0,0,15,13,16,12"/><line class="cls-1" x1="52.67" y1="310.44" x2="52.67" y2="349.94"/><path class="cls-1" d="M278.54,349.24c6.24-64.76-18.38-106.54-78.17-122.13-19.5-5.82-33.11-17-41.06-32.22"/><line class="cls-1" x1="234.06" y1="310.44" x2="234.06" y2="349.24"/><path class="cls-1" d="M92.31,222.55c40.06,47,71.34,42.15,96.31,0"/><path class="cls-1" d="M114.1,208c-30.21-2.35-52.23-18.14-57.43-61.58.61-33.56,2.71-67.26,16-102,11-41,125-64.25,137.9,0,9,37.5,14.58,73.15,15.1,106,.88,37.53-20.52,54-55.44,57.58"/></g></g></svg>