<svg xmlns="http://www.w3.org/2000/svg" viewBox="0 0 350.41 367.29"><defs><style>.cls-1{fill:none;stroke:#000;stroke-miterlimit:10;stroke-width:9px;}</style></defs><g id="Слой_2" data-name="Слой 2"><g id="Слой_3" data-name="Слой 3"><path class="cls-1" d="M231.38,21.5c6.92,4.31,13.14,9,14,17V102h10.07V133.7c-4,10.69-10.48,15.58-20.07,12.8q-2.94,32.46-23,52a80.16,80.16,0,0,1-12.22,9c-21.52,12.72-42.55,8.61-63.18-9-14.22-10.25-23-26.89-24.6-52-8.91,3.92-15.87,1.26-20-11v-35h11l-2-54c3.85-24,18.22-37.59,42-42h88.07Z"/><path class="cls-1" d="M129.88,67.5c-.77-11.28,6.38-16.08,19.5-16h46.88c15.52,0,26.68-11.25,35.08-29.61"/><path class="cls-1" d="M343.28,361.85c12.1-47.35-18.9-95.35-64.85-108.51-27.05-7.84-58-21.23-78.27-45.84"/><path class="cls-1" d="M7.13,366.18C-5,318.83,26,270.83,72,257.67c27.05-7.84,58-21.23,78.27-45.84"/><line class="cls-1" x1="53.24" y1="366.18" x2="53.24" y2="323.15"/><line class="cls-1" x1="292.22" y1="361.85" x2="292.22" y2="328.77"/><path class="cls-1" d="M129.82,230.21c24.56,55.29,73.56,48.29,92.64-2.33"/></g></g></svg>